<svg width="192" height="192" viewBox="0 0 192 192" fill="none" xmlns="http://www.w3.org/2000/svg">
  <rect width="192" height="192" rx="32" fill="#1e40af"/>
  <path d="M96 48C79.4315 48 66 61.4315 66 78C66 94.5685 79.4315 108 96 108C112.569 108 126 94.5685 126 78C126 61.4315 112.569 48 96 48ZM96 96C86.0589 96 78 87.9411 78 78C78 68.0589 86.0589 60 96 60C105.941 60 114 68.0589 114 78C114 87.9411 105.941 96 96 96Z" fill="white"/>
  <path d="M96 48L96 36M96 120L96 132M66 78H54M126 78H138" stroke="white" stroke-width="6" stroke-linecap="round"/>
  <path d="M96 108C96 108 72 126 72 144C72 157.255 82.745 168 96 168C109.255 168 120 157.255 120 144C120 126 96 108 96 108Z" fill="#60a5fa"/>
  <circle cx="96" cy="144" r="8" fill="white"/>
</svg>
